<?xml version="1.0" encoding="UTF-8"?>
<svg id="_圖層_4" data-name="圖層 4" xmlns="http://www.w3.org/2000/svg" viewBox="0 0 227.33 227.33">
  <defs>
    <style>
      .cls-1 {
        fill: #fff;
      }

      .cls-2 {
        fill: #28b5c2;
      }
    </style>
  </defs>
  <g id="_圖層_2" data-name="圖層 2">
    <path class="cls-2" d="M113.67,.25c62.64,0,113.41,50.78,113.41,113.42s-50.77,113.42-113.41,113.42S.25,176.31,.25,113.67,51.03,.25,113.67,.25Z"/>
  </g>
  <g id="_圖層_3" data-name="圖層 3">
    <path class="cls-1" d="M85.42,23.15V59.3l-66.13-.11,.15,.28,3.02,5.48,29.4,51.31-2.01,1.21-27.11,15.53,10.16,17.51,47.15-26.82,.98-.57-24.98-42.35s-1.41-2.24,1.13-2.26c.89,0,49.57,.34,49.57,.34l.02-2.24,.11-53.44h-21.46Z"/>
    <path class="cls-1" d="M142,23.15V59.3s66.13-.11,66.13-.11l-.15,.28-3.02,5.48-29.4,51.31,2.01,1.21,27.11,15.53-10.16,17.51-47.15-26.82-.98-.57,24.98-42.35s1.41-2.24-1.13-2.26c-.89,0-49.57,.34-49.57,.34l-.02-2.24-.11-53.44h21.46Z"/>
    <polygon class="cls-1" points="39.6 163.84 50.62 182.05 79.84 165.53 113.53 222.07 146.97 165.95 176.83 182.68 187.63 164.68 140.4 136.73 113.67 179.4 87.04 135.88 39.6 163.84"/>
    <circle class="cls-1" cx="113.67" cy="113.67" r="18.63"/>
  </g>
</svg>